<svg xmlns="http://www.w3.org/2000/svg" width="1076" height="752" viewBox="0 0 1076 752">
  <g id="Ellipse_12" data-name="Ellipse 12" fill="none" stroke="#1389ff" stroke-width="800">
    <circle cx="350" cy="350" r="350" stroke="none"/>
    <circle cx="350" cy="350" r="50" fill="none"/>
  </g>
  <path id="Path_6" data-name="Path 6" d="M2977.9,1861c-143.965,302.047-159.608,311.273-159.608,311.273h0l12.37,5.586,12.769,6.384,17.956,6.783,17.956,5.985,18.355,4.389,22.345,4.389,21.547,2.793,16.36,1.6h36.311l17.956-1.6h12.37l12.939-2.793,9.917-1.491,11.569-2.9,10.861-2.769,11.805-3.305,8.818-2.741,7.684-2.655,9.081-3.772L2977.9,1861" transform="translate(-2628 -1511)" fill="#2cfff1" stroke="#2cfff1" stroke-width="1"/>
  <text id="_47_" data-name="47%" transform="translate(304 262)" fill="#fff" font-size="80" font-family="SegoeUI, Segoe UI"><tspan x="0" y="0">47%</tspan></text>
  <text id="_3_" data-name="3%" transform="translate(298 589)" fill="#fff" font-size="77" font-family="SegoeUI, Segoe UI"><tspan x="0" y="0">3%</tspan></text>
  <path id="Path_2" data-name="Path 2" d="M1453.9,536.138h259.23V820.022" transform="translate(-961 -226)" fill="none" stroke="#fff" stroke-width="1"/>
  <text id="They_have_already_decided_they_will_not_meet_in_person_for_Easter_" data-name="They have already decided they will not
meet in person for Easter " transform="translate(763 587)" fill="#fff" font-size="18" font-family="SegoeUI, Segoe UI"><tspan x="0" y="0">They have already decided they will not</tspan><tspan x="0" y="24">meet in person for Easter </tspan></text>
  <path id="Path_5" data-name="Path 5" d="M1371.249,709.341V819.673h356.472" transform="translate(-983.988 -85.341)" fill="none" stroke="#fff" stroke-width="1"/>
  <text id="They_will_have_an_in-person_gathering_no_matter_what_" data-name="They will have an in-person gathering no
matter what " transform="translate(763 726)" fill="#fff" font-size="17" font-family="SegoeUI, Segoe UI"><tspan x="0" y="0">They will have an in-person gathering no</tspan><tspan x="0" y="22">matter what </tspan></text>
  <circle id="Ellipse_8" data-name="Ellipse 8" cx="4" cy="4" r="4" transform="translate(748 591)" fill="#fff"/>
  <circle id="Ellipse_14" data-name="Ellipse 14" cx="4" cy="4" r="4" transform="translate(383 622)" fill="#fff"/>
  <circle id="Ellipse_15" data-name="Ellipse 15" cx="4" cy="4" r="4" transform="translate(490 306)" fill="#fff"/>
</svg>
